<?xml version="1.0" encoding="UTF-8"?>
<svg version="1.1" xmlns="http://www.w3.org/2000/svg" x="0px" y="0px" width="22" height="22" viewBox="0, 0, 22, 22">
  <g id="Layer 1">
    <g>
      <path d="M7.967,15.964 C3.548,15.964 -0.033,12.383 -0.033,7.964 C-0.033,3.546 3.548,-0.036 7.967,-0.036 C12.385,-0.036 15.967,3.546 15.967,7.964 C15.967,12.383 12.385,15.964 7.967,15.964 z M7.967,12.964 C10.728,12.964 12.967,10.726 12.967,7.964 C12.967,5.203 10.728,2.964 7.967,2.964 C5.205,2.964 2.967,5.203 2.967,7.964 C2.967,10.726 5.205,12.964 7.967,12.964 z z" fill="#5C6773"/>
      <path d="M18.624,21.45 L11.552,14.379 L14.381,11.55 L21.452,18.621 C22.233,19.402 22.233,20.669 21.452,21.45 C20.671,22.231 19.405,22.231 18.624,21.45 z" fill="#5C6773"/>
    </g>
  </g>
  <defs/>
</svg>
