<?xml version="1.0" encoding="UTF-8"?>
<!DOCTYPE svg PUBLIC "-//W3C//DTD SVG 1.1//EN" "http://www.w3.org/Graphics/SVG/1.1/DTD/svg11.dtd">
<svg version="1.1" xmlns="http://www.w3.org/2000/svg" xmlns:xlink="http://www.w3.org/1999/xlink" x="0px" y="0px" width="32" height="32" viewBox="0, 0, 32, 32">
  <g id="Layer 1">
    <g>
      <path d="M15,17 L4,18 L7,21 L2,26 L6,30 L11,25 L14,28 L15,17 z" fill="#FFFFFF"/>
      <path d="M15,17 L4,18 L7,21 L2,26 L6,30 L11,25 L14,28 L15,17 z" fill-opacity="0" stroke="#3F3F3F" stroke-width="1"/>
    </g>
    <g>
      <path d="M17,15 L28,14 L25,11 L30,6 L26,2 L21,7 L18,4 L17,15 z" fill="#FFFFFF"/>
      <path d="M17,15 L28,14 L25,11 L30,6 L26,2 L21,7 L18,4 L17,15 z" fill-opacity="0" stroke="#3F3F3F" stroke-width="1"/>
    </g>
  </g>
  <defs/>
</svg>
