<?xml version="1.0" encoding="UTF-8"?>
<svg version="1.1" xmlns="http://www.w3.org/2000/svg" x="0" y="0" width="100%" height="100%" viewBox="0, 0, 16, 16">
  <g id="Layer_1">
    <g>
      <g>
        <path d="M11.535,0.182 L11.535,0.182 C11.742,0.182 11.91,0.394 11.91,0.656 L11.91,2.707 C11.91,2.969 11.742,3.182 11.535,3.182 L11.535,3.182 C11.328,3.182 11.16,2.969 11.16,2.707 L11.16,0.656 C11.16,0.394 11.328,0.182 11.535,0.182 z" fill="#4F4F4F"/>
        <path d="M15.687,4.334 L15.687,4.334 C15.687,4.541 15.474,4.709 15.212,4.709 L13.161,4.709 C12.899,4.709 12.687,4.541 12.687,4.334 L12.687,4.334 C12.687,4.126 12.899,3.959 13.161,3.959 L15.212,3.959 C15.474,3.959 15.687,4.126 15.687,4.334 z" fill="#4F4F4F"/>
      </g>
      <g>
        <path d="M8.123,12.47 L9.623,15.068 C9.761,15.307 9.679,15.613 9.44,15.751 L9.44,15.751 C9.201,15.889 8.895,15.807 8.757,15.568 L7.257,12.97 C7.119,12.731 7.201,12.425 7.44,12.287 L7.44,12.287 C7.679,12.149 7.985,12.231 8.123,12.47 z" fill="#4F4F4F"/>
        <path d="M1.063,6.508 L3.661,8.008 C3.901,8.146 3.982,8.452 3.844,8.691 L3.844,8.691 C3.706,8.93 3.401,9.012 3.161,8.874 L0.563,7.374 C0.324,7.236 0.242,6.93 0.38,6.691 L0.38,6.691 C0.518,6.452 0.824,6.37 1.063,6.508 z" fill="#4F4F4F"/>
        <path d="M11.298,8.612 L14.298,8.612 C14.574,8.612 14.798,8.836 14.798,9.112 L14.798,9.112 C14.798,9.388 14.574,9.612 14.298,9.612 L11.298,9.612 C11.022,9.612 10.798,9.388 10.798,9.112 L10.798,9.112 C10.798,8.836 11.022,8.612 11.298,8.612 z" fill="#4F4F4F"/>
        <path d="M7.245,1.559 L7.245,4.559 C7.245,4.835 7.021,5.059 6.745,5.059 L6.745,5.059 C6.468,5.059 6.245,4.835 6.245,4.559 L6.245,1.559 C6.245,1.283 6.468,1.059 6.745,1.059 L6.745,1.059 C7.021,1.059 7.245,1.283 7.245,1.559 z" fill="#4F4F4F"/>
        <path d="M9.815,10.86 L12.413,12.36 C12.653,12.498 12.735,12.803 12.596,13.043 L12.596,13.043 C12.458,13.282 12.153,13.364 11.913,13.226 L9.315,11.726 C9.076,11.588 8.994,11.282 9.132,11.043 L9.132,11.043 C9.27,10.803 9.576,10.722 9.815,10.86 z" fill="#4F4F4F"/>
        <path d="M3.509,3.455 L5.009,6.053 C5.147,6.292 5.065,6.598 4.826,6.736 L4.826,6.736 C4.587,6.874 4.281,6.792 4.143,6.553 L2.643,3.955 C2.505,3.716 2.587,3.41 2.826,3.272 L2.826,3.272 C3.065,3.134 3.371,3.216 3.509,3.455 z" fill="#4F4F4F"/>
      </g>
      <path d="M9.537,6.472 C8.756,5.691 8.914,4.267 9.891,3.291 C10.867,2.314 12.291,2.156 13.072,2.937 C13.854,3.718 13.695,5.143 12.719,6.119 C11.743,7.095 10.318,7.254 9.537,6.472 z" fill="#4F4F4F"/>
      <path d="M3.88,12.129 C1.052,9.301 2.086,6.853 4.234,4.705 C5.799,3.139 7.99,2.63 9.819,3.226 C9.819,3.226 9.819,3.226 9.819,3.226 C10.499,3.448 10.922,4.145 11.451,4.674 C11.936,5.159 12.497,5.404 12.723,6.018 C13.41,7.88 12.92,10.161 11.305,11.776 C9.157,13.924 6.709,14.958 3.88,12.129 z" fill="#4F4F4F"/>
    </g>
  </g>
</svg>
