<?xml version="1.0" encoding="UTF-8"?>
<svg version="1.1" xmlns="http://www.w3.org/2000/svg" x="0" y="0" width="100%" height="100%" viewBox="0, 0, 16, 16">
  <g id="Layer_1">
    <g>
      <path d="M11.36,4.03 L12.067,4.737 L9.082,7.722 L8.375,7.015 L11.36,4.03 z" fill="#4F4F4F"/>
      <path d="M5.5,16 C2.462,16 0,13.537 0,10.5 C0,7.463 2.462,5 5.5,5 C8.537,5 11,7.463 11,10.5 C11,13.537 8.537,16 5.5,16 z" fill="#4F4F4F"/>
      <path d="M15.296,0.704 L14.103,3.168 L16,5.144 L13.287,4.771 L11.994,7.184 L11.51,4.49 L8.815,4.005 L11.229,2.713 L10.856,-0 L12.832,1.897 L15.296,0.704 z M14.047,2.013 L12.751,2.639 L11.713,1.643 L11.909,3.068 L10.64,3.748 L12.057,4.002 L12.31,5.418 L12.99,4.15 L14.417,4.347 L13.419,3.307 L14.047,2.013 z" fill="#4F4F4F"/>
    </g>
  </g>
</svg>
