<?xml version="1.0" encoding="UTF-8"?>
<svg version="1.1" xmlns="http://www.w3.org/2000/svg" x="0" y="0" width="100%" height="100%" viewBox="0, 0, 16, 16">
  <g id="Layer_1">
    <path d="M8,1 C11.866,1 15,4.134 15,8 C15,11.866 11.866,15 8,15 C4.134,15 1,11.866 1,8 C1,4.134 4.134,1 8,1 z M7.503,6.057 Q7.084,6.057 6.615,6.206 Q6.145,6.355 5.631,6.565 L5.491,7.136 Q5.644,7.079 5.856,7.016 Q6.069,6.952 6.272,6.952 Q6.685,6.952 6.831,7.092 Q6.977,7.231 6.977,7.587 Q6.977,7.784 6.929,8.022 Q6.881,8.26 6.812,8.526 L6.291,10.38 Q6.221,10.672 6.189,10.903 Q6.158,11.135 6.158,11.357 Q6.158,11.929 6.58,12.3 Q7.002,12.671 7.764,12.671 Q8.259,12.671 8.633,12.541 Q9.008,12.411 9.636,12.163 L9.776,11.592 Q9.668,11.643 9.427,11.71 Q9.186,11.776 8.995,11.776 Q8.589,11.776 8.424,11.643 Q8.259,11.51 8.259,11.142 Q8.259,10.996 8.309,10.71 Q8.36,10.424 8.424,10.202 L8.944,8.355 Q9.021,8.101 9.049,7.796 Q9.078,7.492 9.078,7.371 Q9.078,6.787 8.668,6.422 Q8.259,6.057 7.503,6.057 z M8.665,2.674 Q8.151,2.674 7.783,3.017 Q7.415,3.359 7.415,3.842 Q7.415,4.324 7.783,4.664 Q8.151,5.003 8.665,5.003 Q9.179,5.003 9.544,4.664 Q9.909,4.324 9.909,3.842 Q9.909,3.359 9.544,3.017 Q9.179,2.674 8.665,2.674 z" fill="#4F4F4F"/>
  </g>
</svg>
