<?xml version="1.0" encoding="UTF-8"?>
<svg version="1.1" xmlns="http://www.w3.org/2000/svg" x="0" y="0" width="100%" height="100%" viewBox="0, 0, 16, 16">
  <g id="Layer_1">
    <path d="M8,1 C11.866,1 15,4.134 15,8 C15,11.866 11.866,15 8,15 C4.134,15 1,11.866 1,8 C1,4.134 4.134,1 8,1 z M8,10 C7.448,10 7,10.448 7,11 C7,11.552 7.448,12 8,12 C8.552,12 9,11.552 9,11 C9,10.448 8.552,10 8,10 z M8,4 C7.448,4 7,4.448 7,5 L7,8 C7,8.552 7.448,9 8,9 C8.552,9 9,8.552 9,8 L9,5 C9,4.448 8.552,4 8,4 z" fill="#FF7F00"/>
  </g>
</svg>
