<?xml version="1.0" encoding="UTF-8"?>
<svg version="1.1" xmlns="http://www.w3.org/2000/svg" x="0" y="0" width="100%" height="100%" viewBox="0, 0, 16, 16">
  <g id="Layer_1">
    <g>
      <path d="M8.824,9.531 L9.532,8.825 C9.922,8.434 10.555,8.434 10.946,8.825 L14.95,12.828 C15.34,13.219 15.34,13.852 14.95,14.243 L14.243,14.95 C13.852,15.34 13.219,15.34 12.828,14.95 L8.824,10.946 C8.434,10.556 8.434,9.922 8.824,9.531 z" fill="#4F4F4F"/>
      <path d="M6,0 C9.314,0 12,2.686 12,6 C12,9.314 9.314,12 6,12 C2.686,12 0,9.314 0,6 C0,2.686 2.686,0 6,0 z M6,2 C3.791,2 2,3.791 2,6 C2,8.209 3.791,10 6,10 C8.209,10 10,8.209 10,6 C10,3.791 8.209,2 6,2 z" fill="#4F4F4F"/>
    </g>
  </g>
</svg>
