<?xml version="1.0" encoding="UTF-8"?>
<svg version="1.1" xmlns="http://www.w3.org/2000/svg" x="0" y="0" width="100%" height="100%" viewBox="0, 0, 16, 16">
  <g id="Layer_1">
    <path d="M8,1 C11.866,1 15,4.134 15,8 C15,11.866 11.866,15 8,15 C4.134,15 1,11.866 1,8 C1,4.134 4.134,1 8,1 z M8.875,5.949 L7.088,5.949 L7.088,12.5 L8.875,12.5 L8.875,5.949 z M7.984,3.383 Q7.011,3.383 7.011,4.256 Q7.011,5.135 7.984,5.135 Q8.47,5.135 8.713,4.903 Q8.957,4.672 8.957,4.256 Q8.957,3.383 7.984,3.383 z" fill="#4F4F4F"/>
  </g>
</svg>
