<?xml version="1.0" encoding="UTF-8"?>
<svg version="1.1" xmlns="http://www.w3.org/2000/svg" x="0" y="0" width="100%" height="100%" viewBox="0, 0, 16, 16">
  <g id="Layer_1">
    <path d="M8,0 C8,0 16,15 16,15 C16,15 0,15 0,15 C0,15 8,0 8,0 z M8,10.75 C7.448,10.75 7,11.198 7,11.75 C7,12.302 7.448,12.75 8,12.75 C8.552,12.75 9,12.302 9,11.75 C9,11.198 8.552,10.75 8,10.75 z M8,5.25 C7.448,5.25 7,5.698 7,6.25 L7,9.25 C7,9.802 7.448,10.25 8,10.25 C8.552,10.25 9,9.802 9,9.25 L9,6.25 C9,5.698 8.552,5.25 8,5.25 z" fill="#4F4F4F"/>
  </g>
</svg>
