<?xml version="1.0" encoding="UTF-8"?>
<!DOCTYPE svg PUBLIC "-//W3C//DTD SVG 1.1//EN" "http://www.w3.org/Graphics/SVG/1.1/DTD/svg11.dtd">
<svg version="1.1" xmlns="http://www.w3.org/2000/svg" xmlns:xlink="http://www.w3.org/1999/xlink" x="0" y="0" width="100%" height="100%" viewBox="0, 0, 16, 16">
  <defs>
    <linearGradient id="Gradient_1" gradientUnits="userSpaceOnUse" x1="8" y1="15" x2="8" y2="1">
      <stop offset="0" stop-color="#B0B0B0"/>
      <stop offset="1" stop-color="#C0C0C0"/>
    </linearGradient>
  </defs>
  <g id="Layer_1">
    <path d="M8,1 C11.866,1 15,4.134 15,8 C15,11.866 11.866,15 8,15 C4.134,15 1,11.866 1,8 C1,4.134 4.134,1 8,1 z M10.121,4.464 L8,6.586 L5.879,4.464 L4.464,5.879 L6.586,8 L4.464,10.121 L5.879,11.536 L8,9.414 L10.121,11.536 L11.536,10.121 L9.414,8 L11.536,5.879 L10.121,4.464 z" fill="url(#Gradient_1)"/>
  </g>
</svg>
