<?xml version="1.0" encoding="UTF-8"?>
<!DOCTYPE svg PUBLIC "-//W3C//DTD SVG 1.1//EN" "http://www.w3.org/Graphics/SVG/1.1/DTD/svg11.dtd">
<svg version="1.1" xmlns="http://www.w3.org/2000/svg" xmlns:xlink="http://www.w3.org/1999/xlink" x="0px" y="0px" width="16" height="16" viewBox="0, 0, 16, 16">
  <g id="Layer 1">
    <g>
      <g>
        <path d="M5.546,15.5 C2.784,15.5 0.546,13.261 0.546,10.5 C0.546,7.739 2.784,5.5 5.546,5.5 C8.307,5.5 10.546,7.739 10.546,10.5 C10.546,13.261 8.307,15.5 5.546,15.5 z" fill="#595D71"/>
        <path d="M6.546,4.5 L6.546,5.5 C6.546,6.052 6.098,6.5 5.546,6.5 L5.546,6.5 C4.993,6.5 4.546,6.052 4.546,5.5 L4.546,4.5" fill="#424557"/>
        <path d="M5.546,5 C4.993,5 4.546,4.776 4.546,4.5 C4.546,4.224 4.993,4 5.546,4 C6.098,4 6.546,4.224 6.546,4.5 C6.546,4.776 6.098,5 5.546,5 z" fill="#707687"/>
      </g>
      <path d="M7.445,0.057 C9.596,-0.45 11.258,2.557 12.477,4.353 C12.492,4.557 12.155,4.75 11.952,4.812 C9.983,2.375 9.373,0.891 7.748,0.891 C6.123,0.891 6.061,4.5 6.061,4.5 L5.202,4.5 C5.202,4.5 5.295,0.563 7.445,0.057 z" fill="#896A3C"/>
      <g>
        <path d="M10.666,6.815 L11.253,4.877 L9.639,3.653 L11.664,3.612 L12.329,1.699 L12.994,3.612 L15.019,3.653 L13.405,4.877 L13.991,6.815 L12.329,5.659 z" fill="#D40000"/>
        <path d="M11.486,5.726 L11.794,4.707 L10.946,4.064 L12.01,4.042 L12.36,3.037 L12.709,4.042 L13.774,4.064 L12.925,4.707 L13.233,5.726 L12.36,5.118 z" fill="#FBFF3D"/>
      </g>
    </g>
  </g>
  <defs/>
</svg>
