<?xml version="1.0" encoding="UTF-8"?>
<!DOCTYPE svg PUBLIC "-//W3C//DTD SVG 1.1//EN" "http://www.w3.org/Graphics/SVG/1.1/DTD/svg11.dtd">
<svg version="1.1" xmlns="http://www.w3.org/2000/svg" xmlns:xlink="http://www.w3.org/1999/xlink" x="0px" y="0px" width="13" height="13" viewBox="0, 0, 13, 13">
  <g id="Layer 1">
    <g>
      <path d="M6.5,13 C2.91,13 0,10.09 0,6.5 C0,2.91 2.91,0 6.5,0 C10.09,-0 13,2.91 13,6.5 C13,10.09 10.09,13 6.5,13 z" fill="#C8C8C8"/>
      <path d="M6.5,12 C3.462,12 1,9.538 1,6.5 C1,3.462 3.462,1 6.5,1 C9.538,1 12,3.462 12,6.5 C12,9.538 9.538,12 6.5,12 z" fill="#FFFFFF"/>
      <path d="M8.178,10.162 L8.049,10.689 Q7.469,10.918 7.123,11.038 Q6.777,11.158 6.32,11.158 Q5.617,11.158 5.228,10.815 Q4.838,10.473 4.838,9.945 Q4.838,9.74 4.867,9.526 Q4.896,9.312 4.961,9.043 L5.441,7.332 Q5.506,7.086 5.55,6.866 Q5.594,6.646 5.594,6.465 Q5.594,6.137 5.459,6.008 Q5.324,5.879 4.943,5.879 Q4.756,5.879 4.56,5.938 Q4.363,5.996 4.223,6.049 L4.352,5.521 Q4.826,5.328 5.26,5.19 Q5.693,5.053 6.08,5.053 Q6.777,5.053 7.155,5.39 Q7.533,5.727 7.533,6.266 Q7.533,6.377 7.507,6.658 Q7.48,6.939 7.41,7.174 L6.93,8.879 Q6.871,9.084 6.824,9.348 Q6.777,9.611 6.777,9.746 Q6.777,10.086 6.93,10.209 Q7.082,10.332 7.457,10.332 Q7.633,10.332 7.855,10.271 Q8.078,10.209 8.178,10.162 z M8.301,3.008 Q8.301,3.453 7.964,3.767 Q7.627,4.08 7.152,4.08 Q6.678,4.08 6.338,3.767 Q5.998,3.453 5.998,3.008 Q5.998,2.562 6.338,2.246 Q6.678,1.93 7.152,1.93 Q7.627,1.93 7.964,2.246 Q8.301,2.562 8.301,3.008 z" fill="#646464"/>
    </g>
  </g>
  <defs/>
</svg>
