<?xml version="1.0" encoding="UTF-8"?>
<!DOCTYPE svg PUBLIC "-//W3C//DTD SVG 1.1//EN" "http://www.w3.org/Graphics/SVG/1.1/DTD/svg11.dtd">
<svg version="1.1" xmlns="http://www.w3.org/2000/svg" xmlns:xlink="http://www.w3.org/1999/xlink" x="0px" y="0px" width="100%" height="100%" viewBox="0, 0, 16, 16">
  <g id="Layer 1">
    <path d="M8,16 C3.582,16 0,12.418 0,8 C0,3.582 3.582,0 8,0 C12.418,0 16,3.582 16,8 C16,12.418 12.418,16 8,16 z" fill="#C8C8C8"/>
    <path d="M8,14.769 C4.261,14.769 1.231,11.739 1.231,8 C1.231,4.261 4.261,1.231 8,1.231 C11.739,1.231 14.769,4.261 14.769,8 C14.769,11.739 11.739,14.769 8,14.769 z" fill="#FFFFFF"/>
    <path d="M10.065,12.507 L9.906,13.156 Q9.193,13.438 8.767,13.585 Q8.341,13.733 7.778,13.733 Q6.913,13.733 6.434,13.311 Q5.954,12.89 5.954,12.24 Q5.954,11.988 5.99,11.724 Q6.026,11.461 6.106,11.13 L6.697,9.024 Q6.777,8.721 6.831,8.45 Q6.885,8.18 6.885,7.957 Q6.885,7.553 6.719,7.394 Q6.553,7.236 6.084,7.236 Q5.854,7.236 5.612,7.308 Q5.37,7.38 5.198,7.445 L5.356,6.795 Q5.94,6.558 6.474,6.388 Q7.007,6.219 7.483,6.219 Q8.341,6.219 8.806,6.634 Q9.271,7.049 9.271,7.712 Q9.271,7.849 9.239,8.194 Q9.206,8.54 9.12,8.83 L8.529,10.928 Q8.457,11.18 8.399,11.505 Q8.341,11.829 8.341,11.995 Q8.341,12.414 8.529,12.565 Q8.716,12.716 9.178,12.716 Q9.394,12.716 9.668,12.641 Q9.942,12.565 10.065,12.507 z M10.217,3.702 Q10.217,4.25 9.802,4.636 Q9.387,5.022 8.802,5.022 Q8.219,5.022 7.801,4.636 Q7.382,4.25 7.382,3.702 Q7.382,3.153 7.801,2.764 Q8.219,2.375 8.802,2.375 Q9.387,2.375 9.802,2.764 Q10.217,3.153 10.217,3.702 z" fill="#646464"/>
  </g>
  <defs/>
</svg>
