<?xml version="1.0" encoding="UTF-8"?>
<!DOCTYPE svg PUBLIC "-//W3C//DTD SVG 1.1//EN" "http://www.w3.org/Graphics/SVG/1.1/DTD/svg11.dtd">
<svg version="1.1" xmlns="http://www.w3.org/2000/svg" xmlns:xlink="http://www.w3.org/1999/xlink" x="0" y="0" width="16" height="16" viewBox="0, 0, 16, 16">
  <defs>
    <linearGradient id="Gradient_1" gradientUnits="userSpaceOnUse" x1="8" y1="13" x2="8" y2="0">
      <stop offset="0.099" stop-color="#AB713A"/>
      <stop offset="0.951" stop-color="#BF742D"/>
    </linearGradient>
    <linearGradient id="Gradient_2" gradientUnits="userSpaceOnUse" x1="8" y1="12.136" x2="8" y2="0.821">
      <stop offset="0.201" stop-color="#E5910E"/>
      <stop offset="0.802" stop-color="#F2B300"/>
    </linearGradient>
  </defs>
  <g id="Layer_1">
    <path d="M1,3.497 C1,7.816 6.25,12.136 8,13 C9.75,12.136 15,7.816 15,3.497 C15,-0.823 9.75,-0.823 8,1.769 C6.25,-0.823 1,-0.823 1,3.497 z" fill="url(#Gradient_1)"/>
    <path d="M1.875,4.361 C2.75,8.68 8,12.136 8,12.136 C8,12.136 13.25,8.68 14.125,4.361 C15,0.041 9.353,-0.418 8,3.497 C6.687,-0.405 1,0.041 1.875,4.361 z" fill="url(#Gradient_2)"/>
  </g>
</svg>
